<svg id="Layer_1" data-name="Layer 1" xmlns="http://www.w3.org/2000/svg" xmlns:xlink="http://www.w3.org/1999/xlink" viewBox="0 0 885.1 226.43"><defs><style>.cls-1{fill:#1cbdf9;}.cls-2{fill:#fff;}.cls-3{fill:#16ffd8;}.cls-4{fill:none;}.cls-5{fill:#5e5e5e;}.cls-6,.cls-7,.cls-8{opacity:0.6;}.cls-6{fill:url(#linear-gradient);}.cls-7{fill:url(#linear-gradient-2);}.cls-8{fill:url(#linear-gradient-3);}</style><linearGradient id="linear-gradient" x1="79.4" y1="60.23" x2="135.62" y2="22.08" gradientUnits="userSpaceOnUse"><stop offset="0.35" stop-color="#9bc6d2" stop-opacity="0"/><stop offset="0.4" stop-color="#83a4ae" stop-opacity="0.2"/><stop offset="0.56" stop-color="#4c595d" stop-opacity="0.65"/><stop offset="0.74" stop-color="#2c2d2e" stop-opacity="0.92"/><stop offset="1" stop-color="#221f1f"/></linearGradient><linearGradient id="linear-gradient-2" x1="88.09" y1="201.23" x2="48.04" y2="184.73" gradientUnits="userSpaceOnUse"><stop offset="0.49" stop-color="#221f1f" stop-opacity="0"/><stop offset="0.68" stop-color="#221f1f" stop-opacity="0.27"/><stop offset="1" stop-color="#221f1f"/><stop offset="1" stop-color="#221f1f"/></linearGradient><linearGradient id="linear-gradient-3" x1="150.75" y1="200.01" x2="202.27" y2="182.74" gradientUnits="userSpaceOnUse"><stop offset="0.53" stop-color="#221f1f" stop-opacity="0"/><stop offset="0.71" stop-color="#221f1f" stop-opacity="0.27"/><stop offset="1" stop-color="#221f1f"/><stop offset="1" stop-color="#221f1f"/></linearGradient></defs><title>UpCode Academy 1 (RGB)</title><polygon class="cls-1" points="141.29 152.35 134.07 209.1 206.72 226.43 168.73 155.81 141.29 152.35"/><polygon class="cls-2" points="0 155.81 0 155.91 0.06 155.81 0 155.81"/><polygon class="cls-3" points="79.58 155.81 41.58 226.43 115.39 209.1 108.17 152.35 79.58 155.81"/><polygon class="cls-2" points="163.42 0 162.84 0 163.13 0.53 163.42 0"/><polygon class="cls-3" points="124.15 72.97 84.89 0 0.06 155.81 0 155.91 41.57 226.43 41.58 226.43 41.58 226.43 79.58 155.81 124.15 72.97"/><polygon class="cls-1" points="248.25 155.81 163.13 0.53 162.84 0 85.46 0 84.89 0 85.17 0.53 124.15 72.97 168.73 155.81 206.72 226.43 206.73 226.43 206.73 226.43 248.3 155.91 248.25 155.81"/><path class="cls-4" d="M668.67,78.54a25.25,25.25,0,0,0-5.1-8.24,24.85,24.85,0,0,0-7.86-5.71,23.4,23.4,0,0,0-10.06-2.13,23.64,23.64,0,0,0-10,2.06A23.95,23.95,0,0,0,623,78.27a28.35,28.35,0,0,0-1.72,9.9v.27a28,28,0,0,0,.7,6.32A26.38,26.38,0,0,0,623,98.34a26.05,26.05,0,0,0,5,8.25,24.34,24.34,0,0,0,7.79,5.7,23.33,23.33,0,0,0,10.07,2.13A24,24,0,0,0,656,112.36a23,23,0,0,0,7.72-5.57,25.72,25.72,0,0,0,5-8.18,27.24,27.24,0,0,0,1.79-9.89v-.28a27.93,27.93,0,0,0-.7-6.31A26.51,26.51,0,0,0,668.67,78.54Z"/><path class="cls-4" d="M473.48,84.78a11.33,11.33,0,0,0,4.06-9.19v-.28q0-6.21-4.06-9.46T462.14,62.6H449.63V88.17h12.65Q469.44,88.17,473.48,84.78Z"/><path class="cls-4" d="M545.08,104.14a22.7,22.7,0,0,0,1.94,2.59,22.13,22.13,0,0,0,7.22,5.43,20.42,20.42,0,0,0,2.76,1.06A26.81,26.81,0,0,1,545.08,104.14Z"/><path class="cls-4" d="M763.17,70.36Q755.85,64,743.85,64H733v48.94h10.9q12,0,19.32-6.32t7.31-18V88.3Q770.48,76.77,763.17,70.36Z"/><path class="cls-4" d="M558.08,63.37a20.36,20.36,0,0,0-3.84,1.36A22.13,22.13,0,0,0,547,70.16,24.66,24.66,0,0,0,544.27,74,26.87,26.87,0,0,1,558.08,63.37Z"/><path class="cls-3" d="M435.16,155.32l-21.5,50.85h14.72l3.6-9h19.48l3.68,9h15l-21.5-50.85Zm.93,31,5.7-14.36,5.63,14.36Z"/><path class="cls-3" d="M504.43,190.77a15.47,15.47,0,0,1-2.52,1.95,11.05,11.05,0,0,1-3,1.26,13.74,13.74,0,0,1-3.57.44,11.17,11.17,0,0,1-4.87-1,11.72,11.72,0,0,1-3.79-2.85,13.52,13.52,0,0,1-2.49-4.29,15.49,15.49,0,0,1-.9-5.3v-.15a14.9,14.9,0,0,1,.9-5.19,13.59,13.59,0,0,1,2.49-4.26,11.72,11.72,0,0,1,3.79-2.85,11.31,11.31,0,0,1,4.87-1,11.87,11.87,0,0,1,6.27,1.58,18.38,18.38,0,0,1,4.77,4.33L517,165.2a27.25,27.25,0,0,0-3.79-4.25,23.45,23.45,0,0,0-4.76-3.36,23.9,23.9,0,0,0-5.81-2.16,30.17,30.17,0,0,0-7.07-.76,27.47,27.47,0,0,0-10.64,2,25.48,25.48,0,0,0-8.4,5.59,26.38,26.38,0,0,0-7.57,18.65v.14a26.2,26.2,0,0,0,7.61,18.72,24.65,24.65,0,0,0,8.26,5.44,26.54,26.54,0,0,0,10.17,2,30.5,30.5,0,0,0,7.53-.86,25.27,25.27,0,0,0,6.06-2.38,22.7,22.7,0,0,0,4.84-3.61,39,39,0,0,0,3.93-4.54l-10.53-7.51A26.89,26.89,0,0,1,504.43,190.77Z"/><path class="cls-3" d="M540.75,155.32l-21.49,50.85H534l3.61-9h19.47l3.68,9h15l-21.49-50.85Zm.94,31,5.7-14.36L553,186.34Z"/><path class="cls-3" d="M621.14,162.68a25.63,25.63,0,0,0-8.94-5.16,36.73,36.73,0,0,0-12.09-1.84H580.64v50.49h19.19A35.94,35.94,0,0,0,612,204.26a26,26,0,0,0,9-5.3,22.69,22.69,0,0,0,5.63-8,26,26,0,0,0,2-10.14v-.14a25.73,25.73,0,0,0-1.92-10.06A21.88,21.88,0,0,0,621.14,162.68ZM614.32,181q0,6.13-3.83,9.45t-10.14,3.32h-5.72V168.09h5.72q6.3,0,10.14,3.35t3.83,9.41Z"/><polygon class="cls-3" points="649.6 186.26 673.83 186.26 673.83 175.23 649.6 175.23 649.6 167.58 676.36 167.58 676.36 155.68 635.82 155.68 635.82 206.17 676.72 206.17 676.72 194.27 649.6 194.27 649.6 186.26"/><polygon class="cls-3" points="710.76 175.23 698.72 155.68 683.93 155.68 683.93 206.17 697.71 206.17 697.71 177.32 710.51 196.94 710.8 196.94 723.67 177.18 723.67 206.17 737.6 206.17 737.6 155.68 722.81 155.68 710.76 175.23"/><polygon class="cls-3" points="768.25 174.07 757.87 155.68 741.92 155.68 761.11 187.27 761.11 206.17 775.18 206.17 775.18 187.06 794.36 155.68 778.71 155.68 768.25 174.07"/><path class="cls-1" d="M784.47,53.66a48.73,48.73,0,0,0-17.05-9.83,70.27,70.27,0,0,0-23-3.5H707.28V83.14c.13,1.66.21,3.33.21,5v.27c0,1.69-.08,3.37-.21,5v43.09h36.56A68.83,68.83,0,0,0,767,132.91a49.56,49.56,0,0,0,17.25-10.1A43.4,43.4,0,0,0,795,107.48a49.41,49.41,0,0,0,3.71-19.31v-.28a49.35,49.35,0,0,0-3.64-19.18A42.2,42.2,0,0,0,784.47,53.66Zm-13,34.92q0,11.69-7.31,18t-19.31,6.32H733.94V64h10.91q12,0,19.31,6.39t7.31,17.94Z"/><polygon class="cls-1" points="833.41 113.87 833.41 98.61 879.6 98.61 879.6 77.58 833.41 77.58 833.41 63.01 884.41 63.01 884.41 40.33 807.15 40.33 807.15 136.56 885.1 136.56 885.1 113.87 833.41 113.87"/><path class="cls-1" d="M385.34,94.49q0,10.17-4.78,15t-12.82,4.82q-8,0-12.82-5T350.14,93.8V40.33H322.92v54a56.17,56.17,0,0,0,3.1,19.59,35.44,35.44,0,0,0,8.87,13.75,35.88,35.88,0,0,0,14,8,61.38,61.38,0,0,0,18.56,2.61,62,62,0,0,0,18.62-2.61,34.91,34.91,0,0,0,23.24-21.93,56.43,56.43,0,0,0,3.23-20.13V40.33H385.34Z"/><path class="cls-1" d="M450.63,109.06h13.2a59.43,59.43,0,0,0,16.56-2.2,37.06,37.06,0,0,0,13.13-6.6,30.67,30.67,0,0,0,8.59-10.86,34.32,34.32,0,0,0,3.1-15v-.28a34.88,34.88,0,0,0-2.82-14.29,28.9,28.9,0,0,0-8.05-10.66,36.25,36.25,0,0,0-12.64-6.6,56.41,56.41,0,0,0-16.5-2.26H424v96.23h26.67Zm0-46.46h12.51q7.29,0,11.34,3.25t4.06,9.46v.28a11.36,11.36,0,0,1-4.06,9.19q-4.05,3.39-11.2,3.39H450.63Z"/><path class="cls-1" d="M597.1,127a61,61,0,0,1-8.67-14.35,55.43,55.43,0,0,1-2-5.26A27,27,0,0,1,558,113.22a20.55,20.55,0,0,1-2.77-1.06,22.24,22.24,0,0,1-7.22-5.43,23.86,23.86,0,0,1-1.93-2.59A26.28,26.28,0,0,1,545.27,74,24,24,0,0,1,548,70.16a22.24,22.24,0,0,1,7.22-5.43,20.46,20.46,0,0,1,3.85-1.36,26.93,26.93,0,0,1,27.42,6.26c.56-1.74,1.19-3.46,1.91-5.15a60.82,60.82,0,0,1,9.09-14.89A44.38,44.38,0,0,0,589.32,44a45.75,45.75,0,0,0-11.06-4.12,57.77,57.77,0,0,0-13.47-1.45,52.48,52.48,0,0,0-20.28,3.85,48.28,48.28,0,0,0-16,10.66,50.2,50.2,0,0,0-14.43,35.53v.28a50,50,0,0,0,14.5,35.67,47.14,47.14,0,0,0,15.74,10.38,50.79,50.79,0,0,0,19.39,3.71,57.53,57.53,0,0,0,14.36-1.65,48.44,48.44,0,0,0,11.55-4.53A44,44,0,0,0,597.1,127Z"/><path class="cls-1" d="M698.68,88.44v-.27a49.75,49.75,0,0,0-1.53-12.41,47.12,47.12,0,0,0-2.39-7A49.3,49.3,0,0,0,684,53a50.77,50.77,0,0,0-16.36-10.65,56.19,56.19,0,0,0-41.24,0A52,52,0,0,0,609.87,53a49.28,49.28,0,0,0-4.53,5.07c-.34.44-.68.9-1,1.35a49.7,49.7,0,0,0-5.4,9.53A48.91,48.91,0,0,0,595,88.44v.28a49.68,49.68,0,0,0,1.54,12.4,46.68,46.68,0,0,0,2.38,7,50.35,50.35,0,0,0,2.7,5.34h0A50.84,50.84,0,0,0,605,118.5h0a49.8,49.8,0,0,0,4.76,5.41,50.88,50.88,0,0,0,16.36,10.65,56.22,56.22,0,0,0,41.25,0,51.68,51.68,0,0,0,16.49-10.72,49.07,49.07,0,0,0,14.85-35.4Zm-27.22.28a27.45,27.45,0,0,1-1.79,9.89,25.74,25.74,0,0,1-5,8.18,22.94,22.94,0,0,1-7.72,5.57,24,24,0,0,1-10.06,2.06,23.26,23.26,0,0,1-10.06-2.13,24.23,24.23,0,0,1-7.79-5.7,25.87,25.87,0,0,1-5-8.25,26.42,26.42,0,0,1-1.1-3.58,28.6,28.6,0,0,1-.69-6.32v-.27a28.35,28.35,0,0,1,1.72-9.9,24,24,0,0,1,12.68-13.75,23.72,23.72,0,0,1,10-2.06,23.43,23.43,0,0,1,10.06,2.13,25.07,25.07,0,0,1,7.86,5.71,25.59,25.59,0,0,1,5.1,8.24,27.45,27.45,0,0,1,1.79,9.9Z"/><path class="cls-5" d="M623,98.34A26.38,26.38,0,0,1,622,94.76,26.38,26.38,0,0,0,623,98.34Z"/><polygon class="cls-6" points="84.84 0 123.85 72.49 112.2 94.52 74.06 19.66 84.84 0"/><polygon class="cls-7" points="79.33 156.28 84.9 155.55 59.55 221.93 41.58 226.43 79.33 156.28"/><polygon class="cls-8" points="152.39 154.27 188.85 222.16 206.72 226.43 168.98 156.29 152.39 154.27"/></svg>